# xmcd CD database file
#
# Track frame offsets:
#	150
#	15442
#	27887
#	43594
#	54036
#	68949
#	81648
#	97726
#	108188
#	121979
#	135467
#	147311
#	163741
#	177413
#	190489
#	206338
#	216842
#
# Disc length: 3027 seconds
#
# Revision: 0
# Processed by: cddbd v1.5.2PL0 Copyright (c) Steve Scherf et al.
# Submitted via: CDex 1.51
#
DISCID=e70bd111
DTITLE=Down Trodden String Band - Land of the Sky
DYEAR=2008
DGENRE=Country
TTITLE0=Hold the Woodpile Down
TTITLE1=Logan County Blues
TTITLE2=Waterbound
TTITLE3=Duck Shoes Rag
TTITLE4=Lazy John
TTITLE5=Falls of Richmond
TTITLE6=Handsome Molly
TTITLE7=Grey Eagle
TTITLE8=Sugar Babe
TTITLE9=I've Got No Honeybaby Now
TTITLE10=Down in Little Egypt
TTITLE11=My Home's Across the Blue Ridge Mountains
TTITLE12=Johnson Boys
TTITLE13=New Five Cents
TTITLE14=Chased Old Satan Through the Door
TTITLE15=Booth Shot Lincoln
TTITLE16=Goodbye Miss Liza Jane
EXTD=YEAR: 2008
EXTT0=
EXTT1=
EXTT2=
EXTT3=
EXTT4=
EXTT5=
EXTT6=
EXTT7=
EXTT8=
EXTT9=
EXTT10=
EXTT11=
EXTT12=
EXTT13=
EXTT14=
EXTT15=
EXTT16=
PLAYORDER=
